<?xml version="1.0" encoding="UTF-8" standalone="no"?>
<!DOCTYPE svg PUBLIC "-//W3C//DTD SVG 1.1//EN"
 "http://www.w3.org/Graphics/SVG/1.1/DTD/svg11.dtd">
<!-- Generated by graphviz version 14.1.5 (0)
 -->
<!-- Title: G Pages: 1 -->
<svg width="440pt" height="383pt"
 viewBox="0.00 0.00 440.00 383.00" xmlns="http://www.w3.org/2000/svg" xmlns:xlink="http://www.w3.org/1999/xlink">
<g id="graph0" class="graph" transform="scale(1 1) rotate(0) translate(4 378.5)">
<title>G</title>
<polygon fill="white" stroke="none" points="-4,4 -4,-378.5 436.07,-378.5 436.07,4 -4,4"/>
<!-- target_rule -->
<g id="node1" class="node">
<title>target_rule</title>
<ellipse fill="none" stroke="black" cx="235.32" cy="-356.5" rx="50.84" ry="18"/>
<text xml:space="preserve" text-anchor="middle" x="235.32" y="-351.45" font-family="Times,serif" font-size="14.00">target_rule</text>
</g>
<!-- relay_rule==relay_file -->
<g id="node2" class="node">
<title>relay_rule==relay_file</title>
<polygon fill="none" stroke="black" points="235.32,-301.5 101.18,-283.5 235.32,-265.5 369.47,-283.5 235.32,-301.5"/>
<text xml:space="preserve" text-anchor="middle" x="235.32" y="-278.45" font-family="Times,serif" font-size="14.00">relay_rule==relay_file</text>
</g>
<!-- target_rule&#45;&gt;relay_rule==relay_file -->
<g id="edge1" class="edge">
<title>target_rule&#45;&gt;relay_rule==relay_file</title>
<path fill="none" stroke="black" d="M235.32,-338.31C235.32,-330.73 235.32,-321.6 235.32,-313.04"/>
<polygon fill="black" stroke="black" points="238.82,-313.04 235.32,-303.04 231.82,-313.04 238.82,-313.04"/>
</g>
<!-- relay_rule/relay_file -->
<g id="node3" class="node">
<title>relay_rule/relay_file</title>
<ellipse fill="none" stroke="black" cx="141.32" cy="-195" rx="86.15" ry="18"/>
<text xml:space="preserve" text-anchor="middle" x="141.32" y="-189.95" font-family="Times,serif" font-size="14.00">relay_rule/relay_file</text>
</g>
<!-- relay_rule==relay_file&#45;&gt;relay_rule/relay_file -->
<g id="edge2" class="edge">
<title>relay_rule==relay_file&#45;&gt;relay_rule/relay_file</title>
<path fill="none" stroke="black" d="M218.95,-267.43C204.88,-254.49 184.34,-235.58 167.92,-220.47"/>
<polygon fill="black" stroke="black" points="170.6,-218.19 160.87,-213.99 165.86,-223.34 170.6,-218.19"/>
<text xml:space="preserve" text-anchor="middle" x="201.62" y="-234.2" font-family="Times,serif" font-size="14.00">N</text>
</g>
<!-- n2 -->
<g id="node7" class="node">
<title>n2</title>
<ellipse fill="none" stroke="black" cx="331.32" cy="-195" rx="85.64" ry="18"/>
<text xml:space="preserve" text-anchor="middle" x="331.32" y="-189.95" font-family="Times,serif" font-size="14.00">check_modify_time</text>
</g>
<!-- relay_rule==relay_file&#45;&gt;n2 -->
<g id="edge7" class="edge">
<title>relay_rule==relay_file&#45;&gt;n2</title>
<path fill="none" stroke="black" d="M252.04,-267.43C266.41,-254.49 287.39,-235.58 304.16,-220.47"/>
<polygon fill="black" stroke="black" points="306.28,-223.27 311.37,-213.98 301.6,-218.07 306.28,-223.27"/>
<text xml:space="preserve" text-anchor="middle" x="296.8" y="-234.2" font-family="Times,serif" font-size="14.00">Y</text>
</g>
<!-- run_command -->
<g id="node4" class="node">
<title>run_command</title>
<ellipse fill="none" stroke="black" cx="156.32" cy="-18" rx="65.17" ry="18"/>
<text xml:space="preserve" text-anchor="middle" x="156.32" y="-12.95" font-family="Times,serif" font-size="14.00">run_command</text>
</g>
<!-- relay_rule/relay_file&#45;&gt;run_command -->
<g id="edge3" class="edge">
<title>relay_rule/relay_file&#45;&gt;run_command</title>
<path fill="none" stroke="black" d="M93.67,-179.62C44.96,-162.28 -20.05,-130.2 6.57,-88.5 25.47,-58.89 60.59,-41.71 92.08,-31.83"/>
<polygon fill="black" stroke="black" points="92.96,-35.22 101.57,-29.06 90.99,-28.5 92.96,-35.22"/>
<text xml:space="preserve" text-anchor="middle" x="33.95" y="-101.45" font-family="Times,serif" font-size="14.00">relay_rule</text>
</g>
<!-- n1 -->
<g id="node5" class="node">
<title>n1</title>
<ellipse fill="none" stroke="black" cx="156.32" cy="-106.5" rx="85.64" ry="18"/>
<text xml:space="preserve" text-anchor="middle" x="156.32" y="-101.45" font-family="Times,serif" font-size="14.00">check_modify_time</text>
</g>
<!-- relay_rule/relay_file&#45;&gt;n1 -->
<g id="edge4" class="edge">
<title>relay_rule/relay_file&#45;&gt;n1</title>
<path fill="none" stroke="black" d="M144.29,-176.91C146.31,-165.26 149.03,-149.55 151.38,-136.02"/>
<polygon fill="black" stroke="black" points="154.79,-136.79 153.05,-126.34 147.9,-135.6 154.79,-136.79"/>
<text xml:space="preserve" text-anchor="middle" x="176.04" y="-145.7" font-family="Times,serif" font-size="14.00">relay_file</text>
</g>
<!-- n1&#45;&gt;run_command -->
<g id="edge6" class="edge">
<title>n1&#45;&gt;run_command</title>
<path fill="none" stroke="black" d="M156.32,-88.41C156.32,-76.76 156.32,-61.05 156.32,-47.52"/>
<polygon fill="black" stroke="black" points="159.82,-47.86 156.32,-37.86 152.82,-47.86 159.82,-47.86"/>
<text xml:space="preserve" text-anchor="middle" x="172.82" y="-57.2" font-family="Times,serif" font-size="14.00">newer</text>
</g>
<!-- pass -->
<g id="node6" class="node">
<title>pass</title>
<ellipse fill="none" stroke="black" cx="282.32" cy="-18" rx="27" ry="18"/>
<text xml:space="preserve" text-anchor="middle" x="282.32" y="-12.95" font-family="Times,serif" font-size="14.00">pass</text>
</g>
<!-- n1&#45;&gt;pass -->
<g id="edge5" class="edge">
<title>n1&#45;&gt;pass</title>
<path fill="none" stroke="black" d="M180.62,-88.82C201.8,-74.28 232.51,-53.2 254.63,-38.01"/>
<polygon fill="black" stroke="black" points="256.32,-41.1 262.58,-32.55 252.36,-35.32 256.32,-41.1"/>
<text xml:space="preserve" text-anchor="middle" x="208.61" y="-63.28" font-family="Times,serif" font-size="14.00">older</text>
</g>
<!-- n2&#45;&gt;pass -->
<g id="edge8" class="edge">
<title>n2&#45;&gt;pass</title>
<path fill="none" stroke="black" d="M354.93,-177.54C381.22,-157.08 417.75,-120.89 399.32,-88.5 381.96,-58 345.36,-39.5 317.69,-29.34"/>
<polygon fill="black" stroke="black" points="318.86,-26.04 308.26,-26.09 316.58,-32.66 318.86,-26.04"/>
<text xml:space="preserve" text-anchor="middle" x="418.19" y="-101.45" font-family="Times,serif" font-size="14.00">older</text>
</g>
<!-- run_relay_rule -->
<g id="node8" class="node">
<title>run_relay_rule</title>
<ellipse fill="none" stroke="black" cx="325.32" cy="-106.5" rx="65.17" ry="18"/>
<text xml:space="preserve" text-anchor="middle" x="325.32" y="-101.45" font-family="Times,serif" font-size="14.00">run_relay_rule</text>
</g>
<!-- n2&#45;&gt;run_relay_rule -->
<g id="edge9" class="edge">
<title>n2&#45;&gt;run_relay_rule</title>
<path fill="none" stroke="black" d="M330.14,-176.91C329.33,-165.26 328.24,-149.55 327.3,-136.02"/>
<polygon fill="black" stroke="black" points="330.81,-136.09 326.63,-126.36 323.83,-136.58 330.81,-136.09"/>
<text xml:space="preserve" text-anchor="middle" x="345.36" y="-145.7" font-family="Times,serif" font-size="14.00">newer</text>
</g>
<!-- run_relay_rule&#45;&gt;run_command -->
<g id="edge10" class="edge">
<title>run_relay_rule&#45;&gt;run_command</title>
<path fill="none" stroke="black" d="M295.5,-90.23C267.91,-76.12 226.71,-55.03 196.29,-39.45"/>
<polygon fill="black" stroke="black" points="198.26,-36.53 187.76,-35.09 195.07,-42.77 198.26,-36.53"/>
</g>
</g>
</svg>
