<?xml version="1.0" encoding="UTF-8" standalone="no"?>
<!DOCTYPE svg PUBLIC "-//W3C//DTD SVG 1.1//EN"
 "http://www.w3.org/Graphics/SVG/1.1/DTD/svg11.dtd">
<!-- Generated by graphviz version 14.1.5 (0)
 -->
<!-- Title: G Pages: 1 -->
<svg width="596pt" height="398pt"
 viewBox="0.00 0.00 596.00 398.00" xmlns="http://www.w3.org/2000/svg" xmlns:xlink="http://www.w3.org/1999/xlink">
<g id="graph0" class="graph" transform="scale(1 1) rotate(0) translate(4 394)">
<title>G</title>
<polygon fill="white" stroke="none" points="-4,4 -4,-394 592.37,-394 592.37,4 -4,4"/>
<!-- target_rule -->
<g id="node1" class="node">
<title>target_rule</title>
<polygon fill="none" stroke="black" points="460.12,-390 388.22,-372 460.12,-354 532.01,-372 460.12,-390"/>
<text xml:space="preserve" text-anchor="middle" x="460.12" y="-366.95" font-family="Times,serif" font-size="14.00">target_rule</text>
</g>
<!-- relay_rule==relay_file -->
<g id="node2" class="node">
<title>relay_rule==relay_file</title>
<polygon fill="none" stroke="black" points="379.12,-301.5 244.97,-283.5 379.12,-265.5 513.26,-283.5 379.12,-301.5"/>
<text xml:space="preserve" text-anchor="middle" x="379.12" y="-278.45" font-family="Times,serif" font-size="14.00">relay_rule==relay_file</text>
</g>
<!-- target_rule&#45;&gt;relay_rule==relay_file -->
<g id="edge1" class="edge">
<title>target_rule&#45;&gt;relay_rule==relay_file</title>
<path fill="none" stroke="black" d="M447.1,-357.1C434.73,-343.89 415.87,-323.74 401.15,-308.03"/>
<polygon fill="black" stroke="black" points="403.89,-305.83 394.5,-300.93 398.78,-310.62 403.89,-305.83"/>
<text xml:space="preserve" text-anchor="middle" x="452.75" y="-322.7" font-family="Times,serif" font-size="14.00">has_relay</text>
</g>
<!-- run_command -->
<g id="node3" class="node">
<title>run_command</title>
<ellipse fill="none" stroke="black" cx="392.12" cy="-18" rx="65.17" ry="18"/>
<text xml:space="preserve" text-anchor="middle" x="392.12" y="-12.95" font-family="Times,serif" font-size="14.00">run_command</text>
</g>
<!-- target_rule&#45;&gt;run_command -->
<g id="edge2" class="edge">
<title>target_rule&#45;&gt;run_command</title>
<path fill="none" stroke="black" d="M482.68,-359.36C506.65,-345.2 541.12,-318.86 541.12,-284.5 541.12,-284.5 541.12,-284.5 541.12,-105.5 541.12,-64.35 498.09,-42.45 458.28,-30.99"/>
<polygon fill="black" stroke="black" points="459.2,-27.61 448.64,-28.42 457.4,-34.38 459.2,-27.61"/>
<text xml:space="preserve" text-anchor="middle" x="564.74" y="-189.95" font-family="Times,serif" font-size="14.00">no_relay</text>
</g>
<!-- relay_rule/relay_file -->
<g id="node4" class="node">
<title>relay_rule/relay_file</title>
<polygon fill="none" stroke="black" points="382.12,-213 260.28,-195 382.12,-177 503.96,-195 382.12,-213"/>
<text xml:space="preserve" text-anchor="middle" x="382.12" y="-189.95" font-family="Times,serif" font-size="14.00">relay_rule/relay_file</text>
</g>
<!-- relay_rule==relay_file&#45;&gt;relay_rule/relay_file -->
<g id="edge3" class="edge">
<title>relay_rule==relay_file&#45;&gt;relay_rule/relay_file</title>
<path fill="none" stroke="black" d="M379.71,-265.41C380.11,-253.76 380.66,-238.05 381.13,-224.52"/>
<polygon fill="black" stroke="black" points="384.61,-224.98 381.46,-214.86 377.62,-224.74 384.61,-224.98"/>
<text xml:space="preserve" text-anchor="middle" x="385.76" y="-234.2" font-family="Times,serif" font-size="14.00">N</text>
</g>
<!-- n2 -->
<g id="node8" class="node">
<title>n2</title>
<polygon fill="none" stroke="black" points="121.12,-213 0,-195 121.12,-177 242.23,-195 121.12,-213"/>
<text xml:space="preserve" text-anchor="middle" x="121.12" y="-189.95" font-family="Times,serif" font-size="14.00">check_modify_time</text>
</g>
<!-- relay_rule==relay_file&#45;&gt;n2 -->
<g id="edge8" class="edge">
<title>relay_rule==relay_file&#45;&gt;n2</title>
<path fill="none" stroke="black" d="M341.88,-270.01C295.95,-254.62 217.85,-228.43 167.92,-211.69"/>
<polygon fill="black" stroke="black" points="169.13,-208.4 158.53,-208.54 166.9,-215.04 169.13,-208.4"/>
<text xml:space="preserve" text-anchor="middle" x="278.1" y="-234.2" font-family="Times,serif" font-size="14.00">Y</text>
</g>
<!-- run_relay_rule -->
<g id="node5" class="node">
<title>run_relay_rule</title>
<ellipse fill="none" stroke="black" cx="188.12" cy="-106.5" rx="65.17" ry="18"/>
<text xml:space="preserve" text-anchor="middle" x="188.12" y="-101.45" font-family="Times,serif" font-size="14.00">run_relay_rule</text>
</g>
<!-- relay_rule/relay_file&#45;&gt;run_relay_rule -->
<g id="edge4" class="edge">
<title>relay_rule/relay_file&#45;&gt;run_relay_rule</title>
<path fill="none" stroke="black" d="M352.65,-180.86C320.53,-166.54 268.78,-143.47 231.9,-127.02"/>
<polygon fill="black" stroke="black" points="233.39,-123.85 222.83,-122.98 230.53,-130.25 233.39,-123.85"/>
<text xml:space="preserve" text-anchor="middle" x="329.87" y="-145.7" font-family="Times,serif" font-size="14.00">relay_rule</text>
</g>
<!-- n1 -->
<g id="node6" class="node">
<title>n1</title>
<polygon fill="none" stroke="black" points="392.12,-124.5 271,-106.5 392.12,-88.5 513.23,-106.5 392.12,-124.5"/>
<text xml:space="preserve" text-anchor="middle" x="392.12" y="-101.45" font-family="Times,serif" font-size="14.00">check_modify_time</text>
</g>
<!-- relay_rule/relay_file&#45;&gt;n1 -->
<g id="edge5" class="edge">
<title>relay_rule/relay_file&#45;&gt;n1</title>
<path fill="none" stroke="black" d="M384.09,-176.91C385.45,-165.18 387.28,-149.34 388.85,-135.75"/>
<polygon fill="black" stroke="black" points="392.3,-136.39 389.97,-126.06 385.35,-135.59 392.3,-136.39"/>
<text xml:space="preserve" text-anchor="middle" x="413.89" y="-145.7" font-family="Times,serif" font-size="14.00">relay_file</text>
</g>
<!-- run_relay_rule&#45;&gt;run_command -->
<g id="edge11" class="edge">
<title>run_relay_rule&#45;&gt;run_command</title>
<path fill="none" stroke="black" d="M207.39,-89.03C221.46,-77.74 241.45,-63.2 261.12,-54 282,-44.23 306.07,-36.81 327.84,-31.38"/>
<polygon fill="black" stroke="black" points="328.6,-34.79 337.52,-29.06 326.98,-27.98 328.6,-34.79"/>
</g>
<!-- n1&#45;&gt;run_command -->
<g id="edge7" class="edge">
<title>n1&#45;&gt;run_command</title>
<path fill="none" stroke="black" d="M392.12,-88C392.12,-76.51 392.12,-61.2 392.12,-47.93"/>
<polygon fill="black" stroke="black" points="395.62,-47.99 392.12,-37.99 388.62,-47.99 395.62,-47.99"/>
<text xml:space="preserve" text-anchor="middle" x="425.12" y="-57.2" font-family="Times,serif" font-size="14.00">target&lt;relay</text>
</g>
<!-- pass -->
<g id="node7" class="node">
<title>pass</title>
<ellipse fill="none" stroke="black" cx="161.12" cy="-18" rx="27" ry="18"/>
<text xml:space="preserve" text-anchor="middle" x="161.12" y="-12.95" font-family="Times,serif" font-size="14.00">pass</text>
</g>
<!-- n1&#45;&gt;pass -->
<g id="edge6" class="edge">
<title>n1&#45;&gt;pass</title>
<path fill="none" stroke="black" d="M359.02,-93.11C315.41,-76.78 239.1,-48.2 195.07,-31.71"/>
<polygon fill="black" stroke="black" points="196.35,-28.46 185.76,-28.23 193.9,-35.01 196.35,-28.46"/>
<text xml:space="preserve" text-anchor="middle" x="330.31" y="-57.2" font-family="Times,serif" font-size="14.00">target&gt;relay</text>
</g>
<!-- n2&#45;&gt;run_relay_rule -->
<g id="edge10" class="edge">
<title>n2&#45;&gt;run_relay_rule</title>
<path fill="none" stroke="black" d="M133.1,-178.54C142.73,-166.1 156.48,-148.35 167.82,-133.7"/>
<polygon fill="black" stroke="black" points="170.58,-135.85 173.94,-125.81 165.05,-131.57 170.58,-135.85"/>
<text xml:space="preserve" text-anchor="middle" x="193.62" y="-145.7" font-family="Times,serif" font-size="14.00">target&lt;relay</text>
</g>
<!-- n2&#45;&gt;pass -->
<g id="edge9" class="edge">
<title>n2&#45;&gt;pass</title>
<path fill="none" stroke="black" d="M99.06,-179.89C71.14,-160.17 28.88,-122.91 48.12,-88.5 64.71,-58.81 99.75,-40.25 126.45,-29.86"/>
<polygon fill="black" stroke="black" points="127.32,-33.26 135.51,-26.54 124.92,-26.69 127.32,-33.26"/>
<text xml:space="preserve" text-anchor="middle" x="81.12" y="-101.45" font-family="Times,serif" font-size="14.00">target&gt;relay</text>
</g>
</g>
</svg>
