<?xml version="1.0" encoding="UTF-8" standalone="no"?>
<!DOCTYPE svg PUBLIC "-//W3C//DTD SVG 1.1//EN"
 "http://www.w3.org/Graphics/SVG/1.1/DTD/svg11.dtd">
<!-- Generated by graphviz version 14.1.5 (0)
 -->
<!-- Title: G Pages: 1 -->
<svg width="356pt" height="512pt"
 viewBox="0.00 0.00 356.00 512.00" xmlns="http://www.w3.org/2000/svg" xmlns:xlink="http://www.w3.org/1999/xlink">
<g id="graph0" class="graph" transform="scale(1 1) rotate(0) translate(4 508)">
<title>G</title>
<polygon fill="white" stroke="none" points="-4,4 -4,-508 352,-508 352,4 -4,4"/>
<g id="clust1" class="cluster">
<title>cluster_a</title>
<polygon fill="none" stroke="black" points="8,-8 8,-496 340,-496 340,-8 8,-8"/>
<text xml:space="preserve" text-anchor="middle" x="174" y="-478.7" font-family="Times,serif" font-size="14.00">run_relay_rule</text>
</g>
<!-- target_rule -->
<g id="node1" class="node">
<title>target_rule</title>
<polygon fill="none" stroke="black" points="156,-463.5 84.1,-445.5 156,-427.5 227.9,-445.5 156,-463.5"/>
<text xml:space="preserve" text-anchor="middle" x="156" y="-440.45" font-family="Times,serif" font-size="14.00">target_rule</text>
</g>
<!-- run_command -->
<g id="node2" class="node">
<title>run_command</title>
<ellipse fill="none" stroke="black" cx="81" cy="-34" rx="65.17" ry="18"/>
<text xml:space="preserve" text-anchor="middle" x="81" y="-28.95" font-family="Times,serif" font-size="14.00">run_command</text>
</g>
<!-- target_rule&#45;&gt;run_command -->
<g id="edge1" class="edge">
<title>target_rule&#45;&gt;run_command</title>
<path fill="none" stroke="black" d="M139.51,-431.38C127.45,-421.18 111.3,-406.16 100,-390.5 58.91,-333.56 47.59,-316.41 31.75,-248 15.81,-179.16 5.94,-154.69 32,-89 36.38,-77.97 44.12,-67.77 52.18,-59.28"/>
<polygon fill="black" stroke="black" points="54.45,-61.95 59.14,-52.45 49.55,-56.96 54.45,-61.95"/>
<text xml:space="preserve" text-anchor="middle" x="53.88" y="-234.7" font-family="Times,serif" font-size="14.00">no relay</text>
</g>
<!-- relay_file -->
<g id="node3" class="node">
<title>relay_file</title>
<polygon fill="none" stroke="black" points="174,-390.5 108.62,-372.5 174,-354.5 239.38,-372.5 174,-390.5"/>
<text xml:space="preserve" text-anchor="middle" x="174" y="-367.45" font-family="Times,serif" font-size="14.00">relay_file</text>
</g>
<!-- target_rule&#45;&gt;relay_file -->
<g id="edge2" class="edge">
<title>target_rule&#45;&gt;relay_file</title>
<path fill="none" stroke="black" d="M160.17,-428.03C162.25,-419.85 164.81,-409.76 167.16,-400.49"/>
<polygon fill="black" stroke="black" points="170.53,-401.41 169.6,-390.86 163.75,-399.69 170.53,-401.41"/>
</g>
<!-- check_time -->
<g id="node4" class="node">
<title>check_time</title>
<polygon fill="none" stroke="black" points="174,-302 97.76,-284 174,-266 250.24,-284 174,-302"/>
<text xml:space="preserve" text-anchor="middle" x="174" y="-278.95" font-family="Times,serif" font-size="14.00">check_time</text>
</g>
<!-- relay_file&#45;&gt;check_time -->
<g id="edge3" class="edge">
<title>relay_file&#45;&gt;check_time</title>
<path fill="none" stroke="black" d="M174,-354C174,-342.51 174,-327.2 174,-313.93"/>
<polygon fill="black" stroke="black" points="177.5,-313.99 174,-303.99 170.5,-313.99 177.5,-313.99"/>
<text xml:space="preserve" text-anchor="middle" x="178.88" y="-323.2" font-family="Times,serif" font-size="14.00">Y</text>
</g>
<!-- run_relay_rule -->
<g id="node5" class="node">
<title>run_relay_rule</title>
<ellipse fill="none" stroke="black" cx="258" cy="-107" rx="65.17" ry="18"/>
<text xml:space="preserve" text-anchor="middle" x="258" y="-101.95" font-family="Times,serif" font-size="14.00">run_relay_rule</text>
</g>
<!-- relay_file&#45;&gt;run_relay_rule -->
<g id="edge4" class="edge">
<title>relay_file&#45;&gt;run_relay_rule</title>
<path fill="none" stroke="black" stroke-width="2" d="M192.64,-359.38C211.13,-346.7 239.44,-325.4 259,-302 287.7,-267.67 296.34,-256.96 307,-213.5 314.55,-182.7 313.05,-169.74 296,-143 293.85,-139.63 291.3,-136.37 288.55,-133.29"/>
<polygon fill="black" stroke="black" stroke-width="2" points="291.04,-130.83 281.49,-126.26 286.1,-135.79 291.04,-130.83"/>
<text xml:space="preserve" text-anchor="middle" x="306.78" y="-234.7" font-family="Times,serif" font-size="14.00">N</text>
</g>
<!-- check_time&#45;&gt;run_command -->
<g id="edge8" class="edge">
<title>check_time&#45;&gt;run_command</title>
<path fill="none" stroke="black" d="M139.38,-273.86C123.34,-268.34 104.81,-260 91,-248 86.67,-244.24 39.53,-165.02 38,-159.5 28.52,-125.21 46.44,-86.62 61.96,-61.62"/>
<polygon fill="black" stroke="black" points="64.81,-63.66 67.33,-53.37 58.94,-59.84 64.81,-63.66"/>
<text xml:space="preserve" text-anchor="middle" x="71" y="-146.2" font-family="Times,serif" font-size="14.00">target&lt;relay</text>
</g>
<!-- do_nothing -->
<g id="node6" class="node">
<title>do_nothing</title>
<ellipse fill="none" stroke="black" cx="118" cy="-107" rx="52.89" ry="18"/>
<text xml:space="preserve" text-anchor="middle" x="118" y="-101.95" font-family="Times,serif" font-size="14.00">do_nothing</text>
</g>
<!-- check_time&#45;&gt;do_nothing -->
<g id="edge7" class="edge">
<title>check_time&#45;&gt;do_nothing</title>
<path fill="none" stroke="black" stroke-dasharray="5,2" d="M148.64,-271.76C126.75,-260.52 96.57,-240.94 83,-213.5 75.91,-199.16 75.71,-191.74 83,-177.5 89.24,-165.31 100.62,-171.03 108,-159.5 112.3,-152.78 114.83,-144.62 116.3,-136.8"/>
<polygon fill="black" stroke="black" points="119.76,-137.29 117.6,-126.92 112.82,-136.37 119.76,-137.29"/>
<text xml:space="preserve" text-anchor="middle" x="116" y="-190.45" font-family="Times,serif" font-size="14.00">target&gt;relay</text>
</g>
<!-- exsit_rule -->
<g id="node7" class="node">
<title>exsit_rule</title>
<polygon fill="none" stroke="black" points="225,-213.5 158.17,-195.5 225,-177.5 291.83,-195.5 225,-213.5"/>
<text xml:space="preserve" text-anchor="middle" x="225" y="-190.45" font-family="Times,serif" font-size="14.00">exsit_rule</text>
</g>
<!-- check_time&#45;&gt;exsit_rule -->
<g id="edge9" class="edge">
<title>check_time&#45;&gt;exsit_rule</title>
<path fill="none" stroke="black" d="M182.88,-267.93C190.49,-255.03 201.59,-236.21 210.48,-221.12"/>
<polygon fill="black" stroke="black" points="213.39,-223.09 215.45,-212.7 207.36,-219.53 213.39,-223.09"/>
<text xml:space="preserve" text-anchor="middle" x="237.07" y="-234.7" font-family="Times,serif" font-size="14.00">target&gt;relay</text>
</g>
<!-- run_relay_rule&#45;&gt;run_command -->
<g id="edge5" class="edge">
<title>run_relay_rule&#45;&gt;run_command</title>
<path fill="none" stroke="black" stroke-width="2" d="M222.18,-91.63C195.31,-80.85 158.25,-65.99 128.85,-54.19"/>
<polygon fill="black" stroke="black" stroke-width="2" points="130.16,-50.95 119.57,-50.47 127.55,-57.44 130.16,-50.95"/>
</g>
<!-- run_relay_rule&#45;&gt;check_time -->
<g id="edge6" class="edge">
<title>run_relay_rule&#45;&gt;check_time</title>
<path fill="none" stroke="black" stroke-dasharray="5,2" d="M273.01,-124.96C289.4,-145.62 311.96,-181.71 301,-213.5 290.09,-245.14 256.17,-262.67 226.13,-272.2"/>
<polygon fill="black" stroke="black" points="225.36,-268.78 216.75,-274.94 227.33,-275.5 225.36,-268.78"/>
</g>
<!-- exsit_rule&#45;&gt;run_relay_rule -->
<g id="edge10" class="edge">
<title>exsit_rule&#45;&gt;run_relay_rule</title>
<path fill="none" stroke="black" d="M231.05,-178.63C235.6,-166.7 241.96,-150.05 247.35,-135.91"/>
<polygon fill="black" stroke="black" points="250.59,-137.25 250.88,-126.66 244.05,-134.76 250.59,-137.25"/>
<text xml:space="preserve" text-anchor="middle" x="249.33" y="-146.2" font-family="Times,serif" font-size="14.00">Y</text>
</g>
<!-- exsit_rule&#45;&gt;do_nothing -->
<g id="edge11" class="edge">
<title>exsit_rule&#45;&gt;do_nothing</title>
<path fill="none" stroke="black" d="M208.75,-181.36C192.3,-168.06 166.51,-147.22 146.63,-131.14"/>
<polygon fill="black" stroke="black" points="148.84,-128.43 138.86,-124.86 144.44,-133.87 148.84,-128.43"/>
<text xml:space="preserve" text-anchor="middle" x="185.96" y="-146.2" font-family="Times,serif" font-size="14.00">N</text>
</g>
</g>
</svg>
