<?xml version="1.0" encoding="UTF-8" standalone="no"?>
<!DOCTYPE svg PUBLIC "-//W3C//DTD SVG 1.1//EN"
 "http://www.w3.org/Graphics/SVG/1.1/DTD/svg11.dtd">
<!-- Generated by graphviz version 14.1.5 (0)
 -->
<!-- Title: G Pages: 1 -->
<svg width="336pt" height="512pt"
 viewBox="0.00 0.00 336.00 512.00" xmlns="http://www.w3.org/2000/svg" xmlns:xlink="http://www.w3.org/1999/xlink">
<g id="graph0" class="graph" transform="scale(1 1) rotate(0) translate(4 508)">
<title>G</title>
<polygon fill="white" stroke="none" points="-4,4 -4,-508 332,-508 332,4 -4,4"/>
<g id="clust1" class="cluster">
<title>cluster_a</title>
<polygon fill="none" stroke="black" points="8,-8 8,-496 320,-496 320,-8 8,-8"/>
<text xml:space="preserve" text-anchor="middle" x="164" y="-478.7" font-family="Times,serif" font-size="14.00">run_relay_rule</text>
</g>
<!-- target_rule -->
<g id="node1" class="node">
<title>target_rule</title>
<polygon fill="none" stroke="black" points="120,-463.5 48.1,-445.5 120,-427.5 191.9,-445.5 120,-463.5"/>
<text xml:space="preserve" text-anchor="middle" x="120" y="-440.45" font-family="Times,serif" font-size="14.00">target_rule</text>
</g>
<!-- run_command -->
<g id="node2" class="node">
<title>run_command</title>
<ellipse fill="none" stroke="black" cx="81" cy="-34" rx="65.17" ry="18"/>
<text xml:space="preserve" text-anchor="middle" x="81" y="-28.95" font-family="Times,serif" font-size="14.00">run_command</text>
</g>
<!-- target_rule&#45;&gt;run_command -->
<g id="edge1" class="edge">
<title>target_rule&#45;&gt;run_command</title>
<path fill="none" stroke="black" d="M84.84,-435.88C55,-426.21 17,-407.27 17,-373.5 17,-373.5 17,-373.5 17,-106 17,-86.3 30.76,-69.61 45.52,-57.36"/>
<polygon fill="black" stroke="black" points="47.23,-60.47 53.03,-51.6 42.96,-54.91 47.23,-60.47"/>
<text xml:space="preserve" text-anchor="middle" x="62.72" y="-422.58" font-family="Times,serif" font-size="14.00">no relay</text>
</g>
<!-- relay_file -->
<g id="node3" class="node">
<title>relay_file</title>
<polygon fill="none" stroke="black" points="133,-390.5 67.62,-372.5 133,-354.5 198.38,-372.5 133,-390.5"/>
<text xml:space="preserve" text-anchor="middle" x="133" y="-367.45" font-family="Times,serif" font-size="14.00">relay_file</text>
</g>
<!-- target_rule&#45;&gt;relay_file -->
<g id="edge2" class="edge">
<title>target_rule&#45;&gt;relay_file</title>
<path fill="none" stroke="black" d="M123.02,-428.03C124.48,-420.06 126.27,-410.26 127.93,-401.18"/>
<polygon fill="black" stroke="black" points="131.37,-401.83 129.73,-391.37 124.48,-400.57 131.37,-401.83"/>
</g>
<!-- check_time -->
<g id="node4" class="node">
<title>check_time</title>
<polygon fill="none" stroke="black" points="133,-302 56.76,-284 133,-266 209.24,-284 133,-302"/>
<text xml:space="preserve" text-anchor="middle" x="133" y="-278.95" font-family="Times,serif" font-size="14.00">check_time</text>
</g>
<!-- relay_file&#45;&gt;check_time -->
<g id="edge3" class="edge">
<title>relay_file&#45;&gt;check_time</title>
<path fill="none" stroke="black" d="M133,-354C133,-342.51 133,-327.2 133,-313.93"/>
<polygon fill="black" stroke="black" points="136.5,-313.99 133,-303.99 129.5,-313.99 136.5,-313.99"/>
<text xml:space="preserve" text-anchor="middle" x="137.88" y="-323.2" font-family="Times,serif" font-size="14.00">Y</text>
</g>
<!-- run_relay_rule -->
<g id="node5" class="node">
<title>run_relay_rule</title>
<ellipse fill="none" stroke="black" cx="247" cy="-107" rx="65.17" ry="18"/>
<text xml:space="preserve" text-anchor="middle" x="247" y="-101.95" font-family="Times,serif" font-size="14.00">run_relay_rule</text>
</g>
<!-- relay_file&#45;&gt;run_relay_rule -->
<g id="edge4" class="edge">
<title>relay_file&#45;&gt;run_relay_rule</title>
<path fill="none" stroke="black" stroke-width="2" d="M154.56,-359.96C187.38,-341.17 249.31,-300.71 280,-248 303.49,-207.65 299.19,-184.07 277,-143 275.47,-140.17 273.68,-137.36 271.75,-134.64"/>
<polygon fill="black" stroke="black" stroke-width="2" points="274.7,-132.73 265.74,-127.08 269.22,-137.09 274.7,-132.73"/>
<text xml:space="preserve" text-anchor="middle" x="293.06" y="-234.7" font-family="Times,serif" font-size="14.00">N</text>
</g>
<!-- check_time&#45;&gt;run_command -->
<g id="edge8" class="edge">
<title>check_time&#45;&gt;run_command</title>
<path fill="none" stroke="black" d="M111.98,-270.47C103.55,-264.55 94.35,-256.85 88,-248 54.57,-201.4 55.72,-181.95 49,-125 47.13,-109.11 44.77,-104.43 49,-89 51.62,-79.44 56.42,-69.85 61.52,-61.46"/>
<polygon fill="black" stroke="black" points="64.4,-63.46 66.94,-53.18 58.54,-59.63 64.4,-63.46"/>
<text xml:space="preserve" text-anchor="middle" x="65.29" y="-146.2" font-family="Times,serif" font-size="14.00">stale</text>
</g>
<!-- do_nothing -->
<g id="node6" class="node">
<title>do_nothing</title>
<ellipse fill="none" stroke="black" cx="111" cy="-107" rx="52.89" ry="18"/>
<text xml:space="preserve" text-anchor="middle" x="111" y="-101.95" font-family="Times,serif" font-size="14.00">do_nothing</text>
</g>
<!-- check_time&#45;&gt;do_nothing -->
<g id="edge7" class="edge">
<title>check_time&#45;&gt;do_nothing</title>
<path fill="none" stroke="black" stroke-dasharray="5,2" d="M118.93,-269.05C106.82,-255.99 90.23,-235.26 83.25,-213.5 74.78,-187.12 85.05,-156.44 95.41,-134.99"/>
<polygon fill="black" stroke="black" points="98.41,-136.81 99.89,-126.32 92.19,-133.6 98.41,-136.81"/>
<text xml:space="preserve" text-anchor="middle" x="106.12" y="-190.45" font-family="Times,serif" font-size="14.00">not stale</text>
</g>
<!-- exsit_rule -->
<g id="node7" class="node">
<title>exsit_rule</title>
<polygon fill="none" stroke="black" points="205,-213.5 138.17,-195.5 205,-177.5 271.83,-195.5 205,-213.5"/>
<text xml:space="preserve" text-anchor="middle" x="205" y="-190.45" font-family="Times,serif" font-size="14.00">exsit_rule</text>
</g>
<!-- check_time&#45;&gt;exsit_rule -->
<g id="edge9" class="edge">
<title>check_time&#45;&gt;exsit_rule</title>
<path fill="none" stroke="black" d="M136.85,-266.87C140.03,-256.02 145.41,-241.87 153.75,-231.5 159.09,-224.86 166.02,-218.99 173.05,-214.03"/>
<polygon fill="black" stroke="black" points="174.8,-217.07 181.28,-208.69 170.99,-211.2 174.8,-217.07"/>
<text xml:space="preserve" text-anchor="middle" x="213.38" y="-234.7" font-family="Times,serif" font-size="14.00">not stale/no target file</text>
</g>
<!-- run_relay_rule&#45;&gt;run_command -->
<g id="edge5" class="edge">
<title>run_relay_rule&#45;&gt;run_command</title>
<path fill="none" stroke="black" stroke-width="2" d="M212.6,-91.29C187.9,-80.72 154.32,-66.36 127.27,-54.79"/>
<polygon fill="black" stroke="black" stroke-width="2" points="128.71,-51.6 118.13,-50.88 125.95,-58.03 128.71,-51.6"/>
</g>
<!-- run_relay_rule&#45;&gt;check_time -->
<g id="edge6" class="edge">
<title>run_relay_rule&#45;&gt;check_time</title>
<path fill="none" stroke="black" stroke-dasharray="5,2" d="M258.16,-125.17C266.28,-138.75 276.61,-158.52 281,-177.5 284.56,-192.86 284.05,-236.76 273,-248 261.32,-259.88 224.01,-268.86 190.84,-274.75"/>
<polygon fill="black" stroke="black" points="190.55,-271.25 181.28,-276.37 191.73,-278.15 190.55,-271.25"/>
</g>
<!-- exsit_rule&#45;&gt;run_relay_rule -->
<g id="edge10" class="edge">
<title>exsit_rule&#45;&gt;run_relay_rule</title>
<path fill="none" stroke="black" stroke-width="3" d="M212.51,-179.04C218.03,-167.66 225.71,-151.85 232.42,-138.03"/>
<polygon fill="black" stroke="black" stroke-width="3" points="235.49,-139.72 236.71,-129.19 229.19,-136.66 235.49,-139.72"/>
<text xml:space="preserve" text-anchor="middle" x="234.64" y="-146.2" font-family="Times,serif" font-size="14.00">Y</text>
</g>
<!-- exsit_rule&#45;&gt;do_nothing -->
<g id="edge11" class="edge">
<title>exsit_rule&#45;&gt;do_nothing</title>
<path fill="none" stroke="black" d="M190.31,-180.98C176.02,-167.84 154.01,-147.58 136.8,-131.74"/>
<polygon fill="black" stroke="black" points="139.63,-129.59 129.9,-125.4 134.89,-134.74 139.63,-129.59"/>
<text xml:space="preserve" text-anchor="middle" x="171.29" y="-146.2" font-family="Times,serif" font-size="14.00">N</text>
</g>
</g>
</svg>
