<?xml version="1.0" encoding="UTF-8" standalone="no"?>
<!DOCTYPE svg PUBLIC "-//W3C//DTD SVG 1.1//EN"
 "http://www.w3.org/Graphics/SVG/1.1/DTD/svg11.dtd">
<!-- Generated by graphviz version 14.1.5 (0)
 -->
<!-- Title: G Pages: 1 -->
<svg width="980pt" height="677pt"
 viewBox="0.00 0.00 980.00 677.00" xmlns="http://www.w3.org/2000/svg" xmlns:xlink="http://www.w3.org/1999/xlink">
<g id="graph0" class="graph" transform="scale(1 1) rotate(0) translate(4 673)">
<title>G</title>
<polygon fill="white" stroke="none" points="-4,4 -4,-673 976,-673 976,4 -4,4"/>
<g id="clust1" class="cluster">
<title>cluster_g</title>
<polygon fill="none" stroke="black" points="8,-8 8,-661 964,-661 964,-8 8,-8"/>
<text xml:space="preserve" text-anchor="middle" x="486" y="-643.7" font-family="Times,serif" font-size="14.00">run_target_rule</text>
</g>
<g id="clust2" class="cluster">
<title>cluster_a</title>
<polygon fill="none" stroke="black" points="154,-16 154,-565.5 956,-565.5 956,-16 154,-16"/>
<text xml:space="preserve" text-anchor="middle" x="555" y="-548.2" font-family="Times,serif" font-size="14.00">has relay</text>
</g>
<g id="clust3" class="cluster">
<title>cluster_a1</title>
<polygon fill="none" stroke="black" points="376,-24 376,-366 646,-366 646,-24 376,-24"/>
<text xml:space="preserve" text-anchor="middle" x="511" y="-348.7" font-family="Times,serif" font-size="14.00">not_stale</text>
</g>
<g id="clust4" class="cluster">
<title>cluster_a2</title>
<polygon fill="none" stroke="black" points="654,-112.5 654,-366 948,-366 948,-112.5 654,-112.5"/>
<text xml:space="preserve" text-anchor="middle" x="801" y="-348.7" font-family="Times,serif" font-size="14.00">stale</text>
</g>
<!-- target_rule -->
<g id="node1" class="node">
<title>target_rule</title>
<ellipse fill="none" stroke="black" cx="175" cy="-610.5" rx="50.84" ry="18"/>
<text xml:space="preserve" text-anchor="middle" x="175" y="-605.45" font-family="Times,serif" font-size="14.00">target_rule</text>
</g>
<!-- run_command -->
<g id="node2" class="node">
<title>run_command</title>
<ellipse fill="none" stroke="black" cx="81" cy="-515" rx="65.17" ry="18"/>
<text xml:space="preserve" text-anchor="middle" x="81" y="-509.95" font-family="Times,serif" font-size="14.00">run_command</text>
</g>
<!-- target_rule&#45;&gt;run_command -->
<g id="edge1" class="edge">
<title>target_rule&#45;&gt;run_command</title>
<path fill="none" stroke="black" d="M158.63,-593.21C143.98,-578.65 122.31,-557.09 105.58,-540.45"/>
<polygon fill="black" stroke="black" points="108.45,-538.37 98.89,-533.8 103.51,-543.33 108.45,-538.37"/>
<text xml:space="preserve" text-anchor="middle" x="105.93" y="-566" font-family="Times,serif" font-size="14.00">no relay</text>
</g>
<!-- check_exsit_file -->
<g id="node3" class="node">
<title>check_exsit_file</title>
<ellipse fill="none" stroke="black" cx="252" cy="-515" rx="71.31" ry="18"/>
<text xml:space="preserve" text-anchor="middle" x="252" y="-509.95" font-family="Times,serif" font-size="14.00">check_exsit_file</text>
</g>
<!-- target_rule&#45;&gt;check_exsit_file -->
<g id="edge2" class="edge">
<title>target_rule&#45;&gt;check_exsit_file</title>
<path fill="none" stroke="black" d="M188.77,-592.78C200.52,-578.51 217.6,-557.77 231.05,-541.44"/>
<polygon fill="black" stroke="black" points="233.48,-544 237.13,-534.05 228.07,-539.55 233.48,-544"/>
</g>
<!-- check_exsit_rule -->
<g id="node4" class="node">
<title>check_exsit_rule</title>
<ellipse fill="none" stroke="black" cx="252" cy="-426.5" rx="73.36" ry="18"/>
<text xml:space="preserve" text-anchor="middle" x="252" y="-421.45" font-family="Times,serif" font-size="14.00">check_exsit_rule</text>
</g>
<!-- check_exsit_file&#45;&gt;check_exsit_rule -->
<g id="edge3" class="edge">
<title>check_exsit_file&#45;&gt;check_exsit_rule</title>
<path fill="none" stroke="black" d="M252,-496.91C252,-485.26 252,-469.55 252,-456.02"/>
<polygon fill="black" stroke="black" points="255.5,-456.36 252,-446.36 248.5,-456.36 255.5,-456.36"/>
<text xml:space="preserve" text-anchor="middle" x="256.88" y="-465.7" font-family="Times,serif" font-size="14.00">N</text>
</g>
<!-- check_time -->
<g id="node6" class="node">
<title>check_time</title>
<ellipse fill="none" stroke="black" cx="476" cy="-426.5" rx="53.91" ry="18"/>
<text xml:space="preserve" text-anchor="middle" x="476" y="-421.45" font-family="Times,serif" font-size="14.00">check_time</text>
</g>
<!-- check_exsit_file&#45;&gt;check_time -->
<g id="edge5" class="edge">
<title>check_exsit_file&#45;&gt;check_time</title>
<path fill="none" stroke="black" d="M290,-499.33C329.07,-484.24 389.89,-460.75 431.26,-444.78"/>
<polygon fill="black" stroke="black" points="432.38,-448.1 440.45,-441.23 429.86,-441.57 432.38,-448.1"/>
<text xml:space="preserve" text-anchor="middle" x="388.94" y="-465.7" font-family="Times,serif" font-size="14.00">Y</text>
</g>
<!-- error -->
<g id="node5" class="node">
<title>error</title>
<ellipse fill="none" stroke="black" cx="191" cy="-315.5" rx="28.83" ry="18"/>
<text xml:space="preserve" text-anchor="middle" x="191" y="-310.45" font-family="Times,serif" font-size="14.00">error</text>
</g>
<!-- check_exsit_rule&#45;&gt;error -->
<g id="edge4" class="edge">
<title>check_exsit_rule&#45;&gt;error</title>
<path fill="none" stroke="black" d="M242.47,-408.47C232.6,-390.83 217.04,-363.03 205.61,-342.61"/>
<polygon fill="black" stroke="black" points="208.74,-341.04 200.81,-334.02 202.63,-344.46 208.74,-341.04"/>
<text xml:space="preserve" text-anchor="middle" x="237.14" y="-377.2" font-family="Times,serif" font-size="14.00">N</text>
</g>
<!-- a3 -->
<g id="node16" class="node">
<title>a3</title>
<ellipse fill="none" stroke="black" cx="303" cy="-315.5" rx="65.17" ry="18"/>
<text xml:space="preserve" text-anchor="middle" x="303" y="-310.45" font-family="Times,serif" font-size="14.00">run_relay_rule</text>
</g>
<!-- check_exsit_rule&#45;&gt;a3 -->
<g id="edge16" class="edge">
<title>check_exsit_rule&#45;&gt;a3</title>
<path fill="none" stroke="black" d="M259.97,-408.47C268.04,-391.21 280.66,-364.24 290.15,-343.96"/>
<polygon fill="black" stroke="black" points="293.21,-345.68 294.28,-335.14 286.87,-342.72 293.21,-345.68"/>
<text xml:space="preserve" text-anchor="middle" x="280.85" y="-377.2" font-family="Times,serif" font-size="14.00">Y</text>
</g>
<!-- a1 -->
<g id="node7" class="node">
<title>a1</title>
<ellipse fill="none" stroke="black" cx="476" cy="-315.5" rx="73.36" ry="18"/>
<text xml:space="preserve" text-anchor="middle" x="476" y="-310.45" font-family="Times,serif" font-size="14.00">check_exsit_rule</text>
</g>
<!-- check_time&#45;&gt;a1 -->
<g id="edge6" class="edge">
<title>check_time&#45;&gt;a1</title>
<path fill="none" stroke="black" d="M476,-408.47C476,-391.53 476,-365.23 476,-345.09"/>
<polygon fill="black" stroke="black" points="479.5,-345.28 476,-335.28 472.5,-345.28 479.5,-345.28"/>
</g>
<!-- a2 -->
<g id="node12" class="node">
<title>a2</title>
<ellipse fill="none" stroke="black" cx="735" cy="-315.5" rx="73.36" ry="18"/>
<text xml:space="preserve" text-anchor="middle" x="735" y="-310.45" font-family="Times,serif" font-size="14.00">check_exsit_rule</text>
</g>
<!-- check_time&#45;&gt;a2 -->
<g id="edge12" class="edge">
<title>check_time&#45;&gt;a2</title>
<path fill="none" stroke="black" d="M516.26,-414.21C552.09,-403.58 605.57,-386.29 650,-366 667.2,-358.14 685.43,-347.82 700.57,-338.64"/>
<polygon fill="black" stroke="black" points="702.07,-341.82 708.75,-333.6 698.4,-335.86 702.07,-341.82"/>
</g>
<!-- do_nothing -->
<g id="node8" class="node">
<title>do_nothing</title>
<ellipse fill="none" stroke="black" cx="437" cy="-50" rx="52.89" ry="18"/>
<text xml:space="preserve" text-anchor="middle" x="437" y="-44.95" font-family="Times,serif" font-size="14.00">do_nothing</text>
</g>
<!-- a1&#45;&gt;do_nothing -->
<g id="edge7" class="edge">
<title>a1&#45;&gt;do_nothing</title>
<path fill="none" stroke="black" d="M466.88,-297.34C460.07,-283.6 451.23,-263.61 447,-245 433.92,-187.43 434.05,-117.88 435.44,-79.65"/>
<polygon fill="black" stroke="black" points="438.93,-80.05 435.86,-69.91 431.94,-79.75 438.93,-80.05"/>
<text xml:space="preserve" text-anchor="middle" x="443.28" y="-177.7" font-family="Times,serif" font-size="14.00">N</text>
</g>
<!-- run_relay_rule -->
<g id="node9" class="node">
<title>run_relay_rule</title>
<ellipse fill="none" stroke="black" cx="521" cy="-227" rx="65.17" ry="18"/>
<text xml:space="preserve" text-anchor="middle" x="521" y="-221.95" font-family="Times,serif" font-size="14.00">run_relay_rule</text>
</g>
<!-- a1&#45;&gt;run_relay_rule -->
<g id="edge8" class="edge">
<title>a1&#45;&gt;run_relay_rule</title>
<path fill="none" stroke="black" d="M484.89,-297.41C491.18,-285.33 499.73,-268.88 506.94,-255.03"/>
<polygon fill="black" stroke="black" points="509.92,-256.88 511.43,-246.4 503.71,-253.65 509.92,-256.88"/>
<text xml:space="preserve" text-anchor="middle" x="507.41" y="-266.2" font-family="Times,serif" font-size="14.00">Y</text>
</g>
<!-- a1_1 -->
<g id="node10" class="node">
<title>a1_1</title>
<ellipse fill="none" stroke="black" cx="521" cy="-138.5" rx="53.91" ry="18"/>
<text xml:space="preserve" text-anchor="middle" x="521" y="-133.45" font-family="Times,serif" font-size="14.00">check_time</text>
</g>
<!-- run_relay_rule&#45;&gt;a1_1 -->
<g id="edge9" class="edge">
<title>run_relay_rule&#45;&gt;a1_1</title>
<path fill="none" stroke="black" d="M521,-208.91C521,-197.26 521,-181.55 521,-168.02"/>
<polygon fill="black" stroke="black" points="524.5,-168.36 521,-158.36 517.5,-168.36 524.5,-168.36"/>
</g>
<!-- a1_1&#45;&gt;do_nothing -->
<g id="edge10" class="edge">
<title>a1_1&#45;&gt;do_nothing</title>
<path fill="none" stroke="black" d="M505.2,-121.23C492.73,-108.38 475.12,-90.25 460.92,-75.63"/>
<polygon fill="black" stroke="black" points="463.55,-73.31 454.07,-68.58 458.52,-78.19 463.55,-73.31"/>
<text xml:space="preserve" text-anchor="middle" x="510.9" y="-89.2" font-family="Times,serif" font-size="14.00">not_stale</text>
</g>
<!-- a1_2 -->
<g id="node11" class="node">
<title>a1_2</title>
<ellipse fill="none" stroke="black" cx="573" cy="-50" rx="65.17" ry="18"/>
<text xml:space="preserve" text-anchor="middle" x="573" y="-44.95" font-family="Times,serif" font-size="14.00">run_command</text>
</g>
<!-- a1_1&#45;&gt;a1_2 -->
<g id="edge11" class="edge">
<title>a1_1&#45;&gt;a1_2</title>
<path fill="none" stroke="black" d="M531.27,-120.41C538.61,-108.21 548.62,-91.55 557,-77.62"/>
<polygon fill="black" stroke="black" points="559.82,-79.73 561.97,-69.35 553.82,-76.12 559.82,-79.73"/>
<text xml:space="preserve" text-anchor="middle" x="564.03" y="-89.2" font-family="Times,serif" font-size="14.00">stale</text>
</g>
<!-- a2_1 -->
<g id="node13" class="node">
<title>a2_1</title>
<ellipse fill="none" stroke="black" cx="727" cy="-227" rx="65.17" ry="18"/>
<text xml:space="preserve" text-anchor="middle" x="727" y="-221.95" font-family="Times,serif" font-size="14.00">run_command</text>
</g>
<!-- a2&#45;&gt;a2_1 -->
<g id="edge13" class="edge">
<title>a2&#45;&gt;a2_1</title>
<path fill="none" stroke="black" d="M733.42,-297.41C732.34,-285.76 730.89,-270.05 729.64,-256.52"/>
<polygon fill="black" stroke="black" points="733.15,-256.49 728.74,-246.86 726.18,-257.14 733.15,-256.49"/>
<text xml:space="preserve" text-anchor="middle" x="736.59" y="-266.2" font-family="Times,serif" font-size="14.00">N</text>
</g>
<!-- a2_2 -->
<g id="node14" class="node">
<title>a2_2</title>
<ellipse fill="none" stroke="black" cx="875" cy="-227" rx="65.17" ry="18"/>
<text xml:space="preserve" text-anchor="middle" x="875" y="-221.95" font-family="Times,serif" font-size="14.00">run_relay_rule</text>
</g>
<!-- a2&#45;&gt;a2_2 -->
<g id="edge14" class="edge">
<title>a2&#45;&gt;a2_2</title>
<path fill="none" stroke="black" d="M761.33,-298.23C783.47,-284.55 815.31,-264.88 839.66,-249.83"/>
<polygon fill="black" stroke="black" points="841.3,-252.93 847.97,-244.7 837.62,-246.98 841.3,-252.93"/>
<text xml:space="preserve" text-anchor="middle" x="822.41" y="-266.2" font-family="Times,serif" font-size="14.00">Y</text>
</g>
<!-- a2_3 -->
<g id="node15" class="node">
<title>a2_3</title>
<ellipse fill="none" stroke="black" cx="875" cy="-138.5" rx="65.17" ry="18"/>
<text xml:space="preserve" text-anchor="middle" x="875" y="-133.45" font-family="Times,serif" font-size="14.00">run_command</text>
</g>
<!-- a2_2&#45;&gt;a2_3 -->
<g id="edge15" class="edge">
<title>a2_2&#45;&gt;a2_3</title>
<path fill="none" stroke="black" d="M875,-208.91C875,-197.26 875,-181.55 875,-168.02"/>
<polygon fill="black" stroke="black" points="878.5,-168.36 875,-158.36 871.5,-168.36 878.5,-168.36"/>
</g>
<!-- a4 -->
<g id="node17" class="node">
<title>a4</title>
<ellipse fill="none" stroke="black" cx="303" cy="-227" rx="65.17" ry="18"/>
<text xml:space="preserve" text-anchor="middle" x="303" y="-221.95" font-family="Times,serif" font-size="14.00">run_command</text>
</g>
<!-- a3&#45;&gt;a4 -->
<g id="edge17" class="edge">
<title>a3&#45;&gt;a4</title>
<path fill="none" stroke="black" d="M303,-297.41C303,-285.76 303,-270.05 303,-256.52"/>
<polygon fill="black" stroke="black" points="306.5,-256.86 303,-246.86 299.5,-256.86 306.5,-256.86"/>
</g>
</g>
</svg>
