<?xml version="1.0" encoding="UTF-8" standalone="no"?>
<!DOCTYPE svg PUBLIC "-//W3C//DTD SVG 1.1//EN"
 "http://www.w3.org/Graphics/SVG/1.1/DTD/svg11.dtd">
<!-- Generated by graphviz version 14.1.5 (0)
 -->
<!-- Title: G Pages: 1 -->
<svg width="742pt" height="589pt"
 viewBox="0.00 0.00 742.00 589.00" xmlns="http://www.w3.org/2000/svg" xmlns:xlink="http://www.w3.org/1999/xlink">
<g id="graph0" class="graph" transform="scale(1 1) rotate(0) translate(4 584.5)">
<title>G</title>
<polygon fill="white" stroke="none" points="-4,4 -4,-584.5 738,-584.5 738,4 -4,4"/>
<g id="clust1" class="cluster">
<title>cluster_g</title>
<polygon fill="none" stroke="black" points="8,-8 8,-572.5 726,-572.5 726,-8 8,-8"/>
<text xml:space="preserve" text-anchor="middle" x="367" y="-555.2" font-family="Times,serif" font-size="14.00">run_target_rule</text>
</g>
<g id="clust2" class="cluster">
<title>cluster_a</title>
<polygon fill="none" stroke="black" points="154,-16 154,-461.5 718,-461.5 718,-16 154,-16"/>
<text xml:space="preserve" text-anchor="middle" x="436" y="-444.2" font-family="Times,serif" font-size="14.00">has relay</text>
</g>
<g id="clust3" class="cluster">
<title>cluster_a1</title>
<polygon fill="none" stroke="black" points="162,-112.5 162,-366 432,-366 432,-112.5 162,-112.5"/>
<text xml:space="preserve" text-anchor="middle" x="297" y="-348.7" font-family="Times,serif" font-size="14.00">N</text>
</g>
<g id="clust4" class="cluster">
<title>cluster_a2</title>
<polygon fill="none" stroke="black" points="440,-24 440,-366 710,-366 710,-24 440,-24"/>
<text xml:space="preserve" text-anchor="middle" x="575" y="-348.7" font-family="Times,serif" font-size="14.00">Y</text>
</g>
<!-- target_rule -->
<g id="node1" class="node">
<title>target_rule</title>
<ellipse fill="none" stroke="black" cx="131" cy="-522" rx="50.84" ry="18"/>
<text xml:space="preserve" text-anchor="middle" x="131" y="-516.95" font-family="Times,serif" font-size="14.00">target_rule</text>
</g>
<!-- run_command -->
<g id="node2" class="node">
<title>run_command</title>
<ellipse fill="none" stroke="black" cx="81" cy="-411" rx="65.17" ry="18"/>
<text xml:space="preserve" text-anchor="middle" x="81" y="-405.95" font-family="Times,serif" font-size="14.00">run_command</text>
</g>
<!-- target_rule&#45;&gt;run_command -->
<g id="edge1" class="edge">
<title>target_rule&#45;&gt;run_command</title>
<path fill="none" stroke="black" d="M123.19,-503.97C115.27,-486.71 102.9,-459.74 93.6,-439.46"/>
<polygon fill="black" stroke="black" points="96.9,-438.28 89.55,-430.65 90.54,-441.2 96.9,-438.28"/>
<text xml:space="preserve" text-anchor="middle" x="136.95" y="-472.7" font-family="Times,serif" font-size="14.00">no relay</text>
</g>
<!-- exsit_rule -->
<g id="node3" class="node">
<title>exsit_rule</title>
<ellipse fill="none" stroke="black" cx="223" cy="-411" rx="47.26" ry="18"/>
<text xml:space="preserve" text-anchor="middle" x="223" y="-405.95" font-family="Times,serif" font-size="14.00">exsit_rule</text>
</g>
<!-- target_rule&#45;&gt;exsit_rule -->
<g id="edge2" class="edge">
<title>target_rule&#45;&gt;exsit_rule</title>
<path fill="none" stroke="black" d="M146.5,-504.45C151.81,-498.68 157.73,-492.11 163,-486 176.63,-470.17 191.42,-451.94 202.91,-437.54"/>
<polygon fill="black" stroke="black" points="205.51,-439.88 208.99,-429.88 200.03,-435.53 205.51,-439.88"/>
</g>
<!-- a1 -->
<g id="node4" class="node">
<title>a1</title>
<ellipse fill="none" stroke="black" cx="223" cy="-315.5" rx="45.21" ry="18"/>
<text xml:space="preserve" text-anchor="middle" x="223" y="-310.45" font-family="Times,serif" font-size="14.00">exsit_file</text>
</g>
<!-- exsit_rule&#45;&gt;a1 -->
<g id="edge3" class="edge">
<title>exsit_rule&#45;&gt;a1</title>
<path fill="none" stroke="black" d="M223,-392.85C223,-379.49 223,-360.65 223,-345.03"/>
<polygon fill="black" stroke="black" points="226.5,-345.37 223,-335.37 219.5,-345.37 226.5,-345.37"/>
</g>
<!-- a2 -->
<g id="node9" class="node">
<title>a2</title>
<ellipse fill="none" stroke="black" cx="513" cy="-315.5" rx="65.17" ry="18"/>
<text xml:space="preserve" text-anchor="middle" x="513" y="-310.45" font-family="Times,serif" font-size="14.00">run_relay_rule</text>
</g>
<!-- exsit_rule&#45;&gt;a2 -->
<g id="edge8" class="edge">
<title>exsit_rule&#45;&gt;a2</title>
<path fill="none" stroke="black" d="M268.46,-405.5C312.57,-400.02 380.76,-388.55 436,-366 452.46,-359.28 469.23,-348.99 482.91,-339.52"/>
<polygon fill="black" stroke="black" points="484.93,-342.38 491.03,-333.72 480.86,-336.68 484.93,-342.38"/>
</g>
<!-- error -->
<g id="node5" class="node">
<title>error</title>
<ellipse fill="none" stroke="black" cx="211" cy="-227" rx="28.83" ry="18"/>
<text xml:space="preserve" text-anchor="middle" x="211" y="-221.95" font-family="Times,serif" font-size="14.00">error</text>
</g>
<!-- a1&#45;&gt;error -->
<g id="edge4" class="edge">
<title>a1&#45;&gt;error</title>
<path fill="none" stroke="black" d="M220.63,-297.41C219.01,-285.76 216.83,-270.05 214.96,-256.52"/>
<polygon fill="black" stroke="black" points="218.46,-256.27 213.61,-246.85 211.52,-257.24 218.46,-256.27"/>
<text xml:space="preserve" text-anchor="middle" x="222.95" y="-266.2" font-family="Times,serif" font-size="14.00">N</text>
</g>
<!-- check_time -->
<g id="node6" class="node">
<title>check_time</title>
<ellipse fill="none" stroke="black" cx="312" cy="-227" rx="53.91" ry="18"/>
<text xml:space="preserve" text-anchor="middle" x="312" y="-221.95" font-family="Times,serif" font-size="14.00">check_time</text>
</g>
<!-- a1&#45;&gt;check_time -->
<g id="edge5" class="edge">
<title>a1&#45;&gt;check_time</title>
<path fill="none" stroke="black" d="M239.32,-298.63C252.7,-285.63 271.86,-267.02 287.14,-252.16"/>
<polygon fill="black" stroke="black" points="289.36,-254.89 294.09,-245.41 284.48,-249.87 289.36,-254.89"/>
<text xml:space="preserve" text-anchor="middle" x="280.35" y="-266.2" font-family="Times,serif" font-size="14.00">Y</text>
</g>
<!-- do_nothing -->
<g id="node7" class="node">
<title>do_nothing</title>
<ellipse fill="none" stroke="black" cx="223" cy="-138.5" rx="52.89" ry="18"/>
<text xml:space="preserve" text-anchor="middle" x="223" y="-133.45" font-family="Times,serif" font-size="14.00">do_nothing</text>
</g>
<!-- check_time&#45;&gt;do_nothing -->
<g id="edge6" class="edge">
<title>check_time&#45;&gt;do_nothing</title>
<path fill="none" stroke="black" d="M295.26,-209.73C281.92,-196.76 263.04,-178.41 247.92,-163.72"/>
<polygon fill="black" stroke="black" points="250.66,-161.51 241.05,-157.05 245.78,-166.53 250.66,-161.51"/>
<text xml:space="preserve" text-anchor="middle" x="298.35" y="-177.7" font-family="Times,serif" font-size="14.00">not stale</text>
</g>
<!-- a1_1 -->
<g id="node8" class="node">
<title>a1_1</title>
<ellipse fill="none" stroke="black" cx="359" cy="-138.5" rx="65.17" ry="18"/>
<text xml:space="preserve" text-anchor="middle" x="359" y="-133.45" font-family="Times,serif" font-size="14.00">run_command</text>
</g>
<!-- check_time&#45;&gt;a1_1 -->
<g id="edge7" class="edge">
<title>check_time&#45;&gt;a1_1</title>
<path fill="none" stroke="black" d="M321.29,-208.91C327.85,-196.83 336.79,-180.38 344.32,-166.53"/>
<polygon fill="black" stroke="black" points="347.31,-168.34 349.01,-157.88 341.16,-165 347.31,-168.34"/>
<text xml:space="preserve" text-anchor="middle" x="352.08" y="-177.7" font-family="Times,serif" font-size="14.00">stale</text>
</g>
<!-- a2_1 -->
<g id="node10" class="node">
<title>a2_1</title>
<ellipse fill="none" stroke="black" cx="513" cy="-227" rx="45.21" ry="18"/>
<text xml:space="preserve" text-anchor="middle" x="513" y="-221.95" font-family="Times,serif" font-size="14.00">exsit_file</text>
</g>
<!-- a2&#45;&gt;a2_1 -->
<g id="edge9" class="edge">
<title>a2&#45;&gt;a2_1</title>
<path fill="none" stroke="black" d="M513,-297.41C513,-285.76 513,-270.05 513,-256.52"/>
<polygon fill="black" stroke="black" points="516.5,-256.86 513,-246.86 509.5,-256.86 516.5,-256.86"/>
</g>
<!-- a2_2 -->
<g id="node11" class="node">
<title>a2_2</title>
<ellipse fill="none" stroke="black" cx="513" cy="-50" rx="65.17" ry="18"/>
<text xml:space="preserve" text-anchor="middle" x="513" y="-44.95" font-family="Times,serif" font-size="14.00">run_command</text>
</g>
<!-- a2_1&#45;&gt;a2_2 -->
<g id="edge10" class="edge">
<title>a2_1&#45;&gt;a2_2</title>
<path fill="none" stroke="black" d="M513,-208.58C513,-178.44 513,-116.3 513,-79.7"/>
<polygon fill="black" stroke="black" points="516.5,-79.86 513,-69.86 509.5,-79.86 516.5,-79.86"/>
<text xml:space="preserve" text-anchor="middle" x="517.88" y="-133.45" font-family="Times,serif" font-size="14.00">N</text>
</g>
<!-- a2_3 -->
<g id="node12" class="node">
<title>a2_3</title>
<ellipse fill="none" stroke="black" cx="595" cy="-138.5" rx="53.91" ry="18"/>
<text xml:space="preserve" text-anchor="middle" x="595" y="-133.45" font-family="Times,serif" font-size="14.00">check_time</text>
</g>
<!-- a2_1&#45;&gt;a2_3 -->
<g id="edge11" class="edge">
<title>a2_1&#45;&gt;a2_3</title>
<path fill="none" stroke="black" d="M528.42,-209.73C540.6,-196.88 557.79,-178.75 571.65,-164.13"/>
<polygon fill="black" stroke="black" points="573.99,-166.75 578.33,-157.09 568.91,-161.94 573.99,-166.75"/>
<text xml:space="preserve" text-anchor="middle" x="566.22" y="-177.7" font-family="Times,serif" font-size="14.00">Y</text>
</g>
<!-- a2_3&#45;&gt;a2_2 -->
<g id="edge12" class="edge">
<title>a2_3&#45;&gt;a2_2</title>
<path fill="none" stroke="black" d="M579.19,-120.82C567.13,-108.1 550.32,-90.37 536.66,-75.96"/>
<polygon fill="black" stroke="black" points="539.5,-73.87 530.08,-69.02 534.42,-78.69 539.5,-73.87"/>
<text xml:space="preserve" text-anchor="middle" x="573.72" y="-89.2" font-family="Times,serif" font-size="14.00">stale</text>
</g>
<!-- a2_4 -->
<g id="node13" class="node">
<title>a2_4</title>
<ellipse fill="none" stroke="black" cx="649" cy="-50" rx="52.89" ry="18"/>
<text xml:space="preserve" text-anchor="middle" x="649" y="-44.95" font-family="Times,serif" font-size="14.00">do_nothing</text>
</g>
<!-- a2_3&#45;&gt;a2_4 -->
<g id="edge13" class="edge">
<title>a2_3&#45;&gt;a2_4</title>
<path fill="none" stroke="black" d="M605.67,-120.41C613.29,-108.21 623.68,-91.55 632.38,-77.62"/>
<polygon fill="black" stroke="black" points="635.23,-79.67 637.55,-69.34 629.29,-75.97 635.23,-79.67"/>
<text xml:space="preserve" text-anchor="middle" x="649.71" y="-89.2" font-family="Times,serif" font-size="14.00">not stale</text>
</g>
</g>
</svg>
